<svg xmlns="http://www.w3.org/2000/svg" xmlns:xlink="http://www.w3.org/1999/xlink" width="500" zoomAndPan="magnify" viewBox="0 0 375 374.999991" height="500" preserveAspectRatio="xMidYMid meet" version="1.0"><rect x="-37.5" width="450" fill="#ffffff" y="-37.499999" height="449.999989" fill-opacity="1"/><rect x="-37.5" width="450" fill="#ffffff" y="-37.499999" height="449.999989" fill-opacity="1"/><path fill="#ffc250" d="M 375 318.3125 L 100.914062 318.3125 L 100.914062 208.6875 C 100.914062 203.445312 104.191406 198.769531 109.117188 196.976562 L 169.433594 175.042969 L 207.535156 115.171875 C 210.964844 109.785156 216.90625 106.519531 223.300781 106.519531 L 375 106.519531 Z M 375 318.3125 " fill-opacity="1" fill-rule="nonzero"/><path fill="#ffd064" d="M 375 318.3125 L 375 118.976562 L 235.757812 118.976562 C 229.367188 118.976562 223.425781 122.242188 219.992188 127.628906 L 181.894531 187.5 L 121.574219 209.433594 C 116.648438 211.226562 113.371094 215.90625 113.371094 221.144531 L 113.371094 318.3125 Z M 375 318.3125 " fill-opacity="1" fill-rule="nonzero"/><path fill="#83727a" d="M 94.683594 274.710938 L 169.433594 274.710938 L 169.433594 324.542969 L 94.683594 324.542969 Z M 94.683594 274.710938 " fill-opacity="1" fill-rule="nonzero"/><path fill="#9f8a8a" d="M 107.144531 291.0625 C 107.144531 302.671875 116.554688 312.085938 128.167969 312.085938 L 169.433594 312.085938 L 169.433594 274.710938 L 107.144531 274.710938 Z M 107.144531 291.0625 " fill-opacity="1" fill-rule="nonzero"/><path fill="#fd8724" d="M 100.914062 224.875 L 125.832031 224.875 L 125.832031 274.710938 L 100.914062 274.710938 Z M 100.914062 224.875 " fill-opacity="1" fill-rule="nonzero"/><path fill="#fd9e28" d="M 113.371094 224.875 L 125.832031 224.875 L 125.832031 274.710938 L 113.371094 274.710938 Z M 113.371094 224.875 " fill-opacity="1" fill-rule="nonzero"/><path fill="#f04343" d="M 100.914062 224.875 L 125.832031 224.875 L 125.832031 249.792969 L 100.914062 249.792969 Z M 100.914062 224.875 " fill-opacity="1" fill-rule="nonzero"/><path fill="#f16464" d="M 113.371094 224.875 L 125.832031 224.875 L 125.832031 249.792969 L 113.371094 249.792969 Z M 113.371094 224.875 " fill-opacity="1" fill-rule="nonzero"/><path fill="#83727a" d="M 223.703125 134.578125 L 200.582031 175.042969 L 287.789062 175.042969 L 287.789062 131.4375 L 229.109375 131.4375 C 226.875 131.4375 224.8125 132.632812 223.703125 134.578125 Z M 223.703125 134.578125 " fill-opacity="1" fill-rule="nonzero"/><path fill="#9f8a8a" d="M 228.53125 146.375 C 224.402344 153.601562 229.617188 162.582031 237.933594 162.582031 L 287.789062 162.582031 L 287.789062 131.4375 L 237.066406 131.4375 Z M 228.53125 146.375 " fill-opacity="1" fill-rule="nonzero"/><path fill="#83727a" d="M 312.707031 131.4375 L 375 131.4375 L 375 175.042969 L 312.707031 175.042969 Z M 312.707031 131.4375 " fill-opacity="1" fill-rule="nonzero"/><path fill="#9f8a8a" d="M 325.167969 145.566406 C 325.167969 154.964844 332.785156 162.582031 342.183594 162.582031 L 375 162.582031 L 375 131.4375 L 325.167969 131.4375 Z M 325.167969 145.566406 " fill-opacity="1" fill-rule="nonzero"/><path fill="#dfd0c7" d="M 169.433594 293.398438 L 375 293.398438 L 375 318.3125 L 169.433594 318.3125 Z M 169.433594 293.398438 " fill-opacity="1" fill-rule="nonzero"/><path fill="#eae1dc" d="M 175.664062 294.617188 C 175.664062 304.265625 183.480469 312.085938 193.132812 312.085938 L 375 312.085938 L 375 293.398438 L 175.664062 293.398438 Z M 175.664062 294.617188 " fill-opacity="1" fill-rule="nonzero"/><path fill="#83727a" d="M 82.226562 324.542969 L 69.765625 324.542969 C 66.328125 324.542969 63.539062 321.753906 63.539062 318.3125 L 63.539062 187.5 C 63.539062 180.617188 69.113281 175.042969 75.996094 175.042969 L 100.246094 175.042969 C 106.453125 175.042969 112.207031 170.800781 113.203125 164.675781 C 114.46875 156.871094 108.480469 150.125 100.914062 150.125 L 75.996094 150.125 C 82.878906 150.125 88.457031 144.550781 88.457031 137.667969 C 88.457031 130.78125 82.878906 125.207031 75.996094 125.207031 L 137.621094 125.207031 C 143.828125 125.207031 149.582031 120.964844 150.578125 114.84375 C 151.84375 107.035156 145.859375 100.289062 138.289062 100.289062 L 113.371094 100.289062 C 120.941406 100.289062 126.925781 93.542969 125.664062 85.738281 C 124.664062 79.617188 118.910156 75.375 112.707031 75.375 L 14.371094 75.375 C 8.167969 75.375 2.410156 79.617188 1.414062 85.738281 C 0.148438 93.542969 6.136719 100.289062 13.703125 100.289062 L 38.621094 100.289062 C 31.738281 100.289062 26.164062 105.867188 26.164062 112.75 C 26.164062 119.632812 31.738281 125.207031 38.621094 125.207031 L 14.371094 125.207031 C 8.167969 125.207031 2.410156 129.449219 1.414062 135.574219 C 0.148438 143.378906 6.136719 150.125 13.703125 150.125 L 26.164062 150.125 C 18.007812 150.125 11.6875 157.960938 14.308594 166.515625 C 15.929688 171.800781 21.296875 175.042969 26.828125 175.042969 C 33.339844 175.042969 38.621094 180.324219 38.621094 186.832031 L 38.621094 324.542969 C 38.621094 338.304688 49.777344 349.460938 63.539062 349.460938 L 82.226562 349.460938 Z M 82.226562 324.542969 " fill-opacity="1" fill-rule="nonzero"/><path fill="#9f8a8a" d="M 150.578125 114.84375 C 151.84375 107.035156 145.859375 100.289062 138.289062 100.289062 L 113.371094 100.289062 C 120.941406 100.289062 126.925781 93.542969 125.664062 85.738281 C 124.664062 79.617188 118.910156 75.375 112.707031 75.375 L 26.828125 75.375 C 20.625 75.375 14.871094 79.617188 13.871094 85.738281 C 12.609375 93.542969 18.59375 100.289062 26.164062 100.289062 L 51.078125 100.289062 C 44.195312 100.289062 38.621094 105.867188 38.621094 112.75 C 38.621094 119.632812 44.195312 125.207031 51.078125 125.207031 L 26.828125 125.207031 C 20.625 125.207031 14.871094 129.449219 13.871094 135.574219 C 12.609375 143.378906 18.59375 150.125 26.164062 150.125 L 38.621094 150.125 C 30.46875 150.125 24.144531 157.960938 26.761719 166.515625 C 28.386719 171.800781 33.757812 175.042969 39.289062 175.042969 C 45.796875 175.042969 51.078125 180.324219 51.078125 186.832031 L 51.078125 324.542969 C 51.078125 338.304688 62.234375 349.460938 75.996094 349.460938 L 82.226562 349.460938 L 82.226562 324.542969 L 69.765625 324.542969 C 66.328125 324.542969 63.539062 321.753906 63.539062 318.3125 L 63.539062 187.5 C 63.539062 180.617188 69.113281 175.042969 75.996094 175.042969 L 100.246094 175.042969 C 106.453125 175.042969 112.207031 170.800781 113.203125 164.675781 C 114.46875 156.871094 108.480469 150.125 100.914062 150.125 L 75.996094 150.125 C 82.878906 150.125 88.457031 144.550781 88.457031 137.667969 C 88.457031 130.78125 82.878906 125.207031 75.996094 125.207031 L 137.621094 125.207031 C 143.828125 125.207031 149.582031 120.964844 150.578125 114.84375 Z M 150.578125 114.84375 " fill-opacity="1" fill-rule="nonzero"/><path fill="#83727a" d="M 244.1875 25.539062 L 225.5 25.539062 C 232.382812 25.539062 237.957031 19.964844 237.957031 13.082031 C 237.957031 6.199219 232.382812 0.621094 225.5 0.621094 L 175.664062 0.621094 C 168.78125 0.621094 163.207031 6.199219 163.207031 13.082031 C 163.207031 19.964844 168.78125 25.539062 175.664062 25.539062 L 194.351562 25.539062 C 187.46875 25.539062 181.894531 31.113281 181.894531 38 C 181.894531 44.882812 187.46875 50.457031 194.351562 50.457031 L 163.207031 50.457031 C 156.324219 50.457031 150.746094 56.03125 150.746094 62.914062 C 150.746094 69.796875 156.324219 75.375 163.207031 75.375 L 213.039062 75.375 C 219.921875 75.375 225.5 69.796875 225.5 62.914062 C 225.5 56.03125 219.921875 50.457031 213.039062 50.457031 L 244.1875 50.457031 C 251.070312 50.457031 256.644531 44.882812 256.644531 38 C 256.644531 31.113281 251.070312 25.539062 244.1875 25.539062 Z M 244.1875 25.539062 " fill-opacity="1" fill-rule="nonzero"/><path fill="#9f8a8a" d="M 256.644531 38 C 256.644531 31.113281 251.070312 25.539062 244.1875 25.539062 L 225.5 25.539062 C 232.382812 25.539062 237.957031 19.964844 237.957031 13.082031 C 237.957031 6.199219 232.382812 0.621094 225.5 0.621094 L 188.121094 0.621094 C 181.238281 0.621094 175.664062 6.199219 175.664062 13.082031 C 175.664062 19.964844 181.238281 25.539062 188.121094 25.539062 L 206.8125 25.539062 C 199.925781 25.539062 194.351562 31.113281 194.351562 38 C 194.351562 44.882812 199.925781 50.457031 206.8125 50.457031 L 175.664062 50.457031 C 168.78125 50.457031 163.207031 56.03125 163.207031 62.914062 C 163.207031 69.796875 168.78125 75.375 175.664062 75.375 L 213.039062 75.375 C 219.921875 75.375 225.5 69.796875 225.5 62.914062 C 225.5 56.03125 219.921875 50.457031 213.039062 50.457031 L 244.1875 50.457031 C 251.070312 50.457031 256.644531 44.882812 256.644531 38 Z M 256.644531 38 " fill-opacity="1" fill-rule="nonzero"/><path fill="#83727a" d="M 107.144531 44.226562 L 69.765625 44.226562 C 62.882812 44.226562 57.308594 38.652344 57.308594 31.769531 C 57.308594 24.886719 62.882812 19.3125 69.765625 19.3125 L 107.144531 19.3125 C 114.027344 19.3125 119.601562 24.886719 119.601562 31.769531 C 119.601562 38.652344 114.027344 44.226562 107.144531 44.226562 Z M 107.144531 44.226562 " fill-opacity="1" fill-rule="nonzero"/><path fill="#9f8a8a" d="M 107.144531 19.3125 L 69.765625 19.3125 C 67.941406 19.3125 66.222656 19.726562 64.660156 20.433594 C 63.957031 21.996094 63.539062 23.714844 63.539062 25.539062 C 63.539062 32.421875 69.113281 38 75.996094 38 L 113.371094 38 C 115.195312 38 116.917969 37.582031 118.480469 36.878906 C 119.183594 35.3125 119.601562 33.59375 119.601562 31.769531 C 119.601562 24.886719 114.027344 19.3125 107.144531 19.3125 Z M 107.144531 19.3125 " fill-opacity="1" fill-rule="nonzero"/><path fill="#dfd0c7" d="M 200.582031 318.3125 L 169.433594 318.3125 L 169.433594 324.542969 L 82.226562 324.542969 L 82.226562 349.460938 L 188.121094 349.460938 C 195.007812 349.460938 200.582031 343.886719 200.582031 337 L 200.582031 318.3125 " fill-opacity="1" fill-rule="nonzero"/><path fill="#eae1dc" d="M 88.457031 324.542969 L 88.457031 327.996094 C 88.457031 336.410156 95.277344 343.230469 103.691406 343.230469 L 194.351562 343.230469 C 196.175781 343.230469 197.898438 342.8125 199.460938 342.109375 C 200.164062 340.546875 200.582031 338.828125 200.582031 337 L 200.582031 318.3125 L 169.433594 318.3125 L 169.433594 324.542969 Z M 88.457031 324.542969 " fill-opacity="1" fill-rule="nonzero"/><path fill="#475959" d="M 337.625 318.3125 C 337.625 320.148438 337.535156 321.980469 337.355469 323.808594 C 337.175781 325.636719 336.90625 327.449219 336.546875 329.25 C 336.1875 331.050781 335.742188 332.832031 335.210938 334.589844 C 334.675781 336.34375 334.058594 338.070312 333.355469 339.769531 C 332.65625 341.464844 331.871094 343.121094 331.003906 344.742188 C 330.140625 346.359375 329.195312 347.933594 328.175781 349.460938 C 327.15625 350.988281 326.0625 352.460938 324.898438 353.878906 C 323.734375 355.300781 322.503906 356.65625 321.203125 357.957031 C 319.90625 359.253906 318.546875 360.488281 317.128906 361.652344 C 315.707031 362.816406 314.234375 363.910156 312.707031 364.929688 C 311.183594 365.949219 309.609375 366.890625 307.988281 367.757812 C 306.371094 368.621094 304.710938 369.40625 303.015625 370.109375 C 301.320312 370.8125 299.59375 371.429688 297.835938 371.964844 C 296.078125 372.496094 294.300781 372.941406 292.5 373.300781 C 290.699219 373.65625 288.882812 373.925781 287.054688 374.105469 C 285.230469 374.285156 283.398438 374.378906 281.5625 374.378906 C 279.726562 374.378906 277.894531 374.285156 276.066406 374.105469 C 274.238281 373.925781 272.425781 373.65625 270.625 373.300781 C 268.824219 372.941406 267.042969 372.496094 265.289062 371.964844 C 263.53125 371.429688 261.804688 370.8125 260.105469 370.109375 C 258.410156 369.40625 256.753906 368.621094 255.132812 367.757812 C 253.515625 366.890625 251.941406 365.949219 250.414062 364.929688 C 248.886719 363.910156 247.414062 362.816406 245.996094 361.652344 C 244.574219 360.488281 243.21875 359.253906 241.917969 357.957031 C 240.621094 356.65625 239.390625 355.300781 238.222656 353.878906 C 237.058594 352.460938 235.964844 350.988281 234.945312 349.460938 C 233.925781 347.933594 232.984375 346.359375 232.117188 344.742188 C 231.253906 343.121094 230.46875 341.464844 229.765625 339.769531 C 229.0625 338.070312 228.445312 336.34375 227.914062 334.589844 C 227.378906 332.832031 226.933594 331.050781 226.574219 329.25 C 226.21875 327.449219 225.949219 325.636719 225.769531 323.808594 C 225.589844 321.980469 225.5 320.148438 225.5 318.3125 C 225.5 316.476562 225.589844 314.644531 225.769531 312.820312 C 225.949219 310.992188 226.21875 309.175781 226.574219 307.375 C 226.933594 305.574219 227.378906 303.796875 227.914062 302.039062 C 228.445312 300.28125 229.0625 298.554688 229.765625 296.859375 C 230.46875 295.164062 231.253906 293.503906 232.117188 291.886719 C 232.984375 290.265625 233.925781 288.695312 234.945312 287.167969 C 235.964844 285.640625 237.058594 284.167969 238.222656 282.746094 C 239.390625 281.328125 240.621094 279.96875 241.917969 278.671875 C 243.21875 277.371094 244.574219 276.140625 245.996094 274.976562 C 247.414062 273.8125 248.886719 272.71875 250.414062 271.699219 C 251.941406 270.679688 253.515625 269.734375 255.132812 268.871094 C 256.753906 268.003906 258.410156 267.222656 260.105469 266.519531 C 261.804688 265.816406 263.53125 265.199219 265.289062 264.664062 C 267.042969 264.132812 268.824219 263.6875 270.625 263.328125 C 272.425781 262.96875 274.238281 262.699219 276.066406 262.519531 C 277.894531 262.339844 279.726562 262.25 281.5625 262.25 C 283.398438 262.25 285.230469 262.339844 287.054688 262.519531 C 288.882812 262.699219 290.699219 262.96875 292.5 263.328125 C 294.300781 263.6875 296.078125 264.132812 297.835938 264.664062 C 299.59375 265.199219 301.320312 265.816406 303.015625 266.519531 C 304.710938 267.222656 306.371094 268.003906 307.988281 268.871094 C 309.609375 269.734375 311.183594 270.679688 312.707031 271.699219 C 314.234375 272.71875 315.707031 273.8125 317.128906 274.976562 C 318.546875 276.140625 319.90625 277.371094 321.203125 278.671875 C 322.503906 279.96875 323.734375 281.328125 324.898438 282.746094 C 326.0625 284.167969 327.15625 285.640625 328.175781 287.167969 C 329.195312 288.695312 330.140625 290.265625 331.003906 291.886719 C 331.871094 293.503906 332.65625 295.164062 333.355469 296.859375 C 334.058594 298.554688 334.675781 300.28125 335.210938 302.039062 C 335.742188 303.796875 336.1875 305.574219 336.546875 307.375 C 336.90625 309.175781 337.175781 310.992188 337.355469 312.820312 C 337.535156 314.644531 337.625 316.476562 337.625 318.3125 Z M 337.625 318.3125 " fill-opacity="1" fill-rule="nonzero"/><path fill="#83727a" d="M 318.9375 318.3125 C 318.9375 319.539062 318.875 320.757812 318.757812 321.976562 C 318.636719 323.195312 318.457031 324.40625 318.21875 325.605469 C 317.980469 326.804688 317.683594 327.992188 317.328125 329.164062 C 316.972656 330.335938 316.558594 331.484375 316.089844 332.617188 C 315.625 333.746094 315.101562 334.851562 314.523438 335.933594 C 313.945312 337.011719 313.316406 338.0625 312.636719 339.078125 C 311.957031 340.097656 311.230469 341.078125 310.453125 342.023438 C 309.675781 342.972656 308.855469 343.875 307.988281 344.742188 C 307.125 345.609375 306.21875 346.429688 305.273438 347.207031 C 304.324219 347.980469 303.34375 348.710938 302.324219 349.390625 C 301.308594 350.070312 300.257812 350.699219 299.179688 351.277344 C 298.101562 351.851562 296.996094 352.375 295.863281 352.84375 C 294.734375 353.3125 293.582031 353.726562 292.410156 354.078125 C 291.238281 354.433594 290.054688 354.730469 288.851562 354.972656 C 287.652344 355.210938 286.441406 355.390625 285.226562 355.507812 C 284.007812 355.628906 282.785156 355.6875 281.5625 355.6875 C 280.335938 355.6875 279.117188 355.628906 277.898438 355.507812 C 276.679688 355.390625 275.46875 355.210938 274.269531 354.972656 C 273.070312 354.730469 271.882812 354.433594 270.710938 354.078125 C 269.539062 353.726562 268.390625 353.3125 267.257812 352.84375 C 266.128906 352.375 265.023438 351.851562 263.941406 351.277344 C 262.863281 350.699219 261.816406 350.070312 260.796875 349.390625 C 259.777344 348.710938 258.796875 347.980469 257.851562 347.207031 C 256.90625 346.429688 256 345.609375 255.132812 344.742188 C 254.265625 343.875 253.445312 342.972656 252.667969 342.023438 C 251.894531 341.078125 251.164062 340.097656 250.484375 339.078125 C 249.804688 338.0625 249.175781 337.011719 248.597656 335.933594 C 248.023438 334.851562 247.5 333.746094 247.03125 332.617188 C 246.5625 331.484375 246.152344 330.335938 245.796875 329.164062 C 245.441406 327.992188 245.144531 326.804688 244.902344 325.605469 C 244.664062 324.40625 244.484375 323.195312 244.367188 321.976562 C 244.246094 320.757812 244.1875 319.539062 244.1875 318.3125 C 244.1875 317.089844 244.246094 315.867188 244.367188 314.652344 C 244.484375 313.433594 244.664062 312.222656 244.902344 311.023438 C 245.144531 309.820312 245.441406 308.636719 245.796875 307.464844 C 246.152344 306.292969 246.5625 305.140625 247.03125 304.011719 C 247.5 302.878906 248.023438 301.773438 248.597656 300.695312 C 249.175781 299.617188 249.804688 298.566406 250.484375 297.550781 C 251.164062 296.53125 251.894531 295.550781 252.667969 294.601562 C 253.445312 293.65625 254.265625 292.75 255.132812 291.886719 C 256 291.019531 256.90625 290.199219 257.851562 289.421875 C 258.796875 288.644531 259.777344 287.917969 260.796875 287.238281 C 261.816406 286.558594 262.863281 285.929688 263.941406 285.351562 C 265.023438 284.773438 266.128906 284.253906 267.257812 283.785156 C 268.390625 283.316406 269.539062 282.902344 270.710938 282.546875 C 271.882812 282.191406 273.070312 281.894531 274.269531 281.65625 C 275.46875 281.417969 276.679688 281.238281 277.898438 281.117188 C 279.117188 281 280.335938 280.9375 281.5625 280.9375 C 282.785156 280.9375 284.007812 281 285.226562 281.117188 C 286.441406 281.238281 287.652344 281.417969 288.851562 281.65625 C 290.054688 281.894531 291.238281 282.191406 292.410156 282.546875 C 293.582031 282.902344 294.734375 283.316406 295.863281 283.785156 C 296.996094 284.253906 298.101562 284.773438 299.179688 285.351562 C 300.257812 285.929688 301.308594 286.558594 302.324219 287.238281 C 303.34375 287.917969 304.324219 288.644531 305.273438 289.421875 C 306.21875 290.199219 307.125 291.019531 307.988281 291.886719 C 308.855469 292.75 309.675781 293.65625 310.453125 294.601562 C 311.230469 295.550781 311.957031 296.53125 312.636719 297.550781 C 313.316406 298.566406 313.945312 299.617188 314.523438 300.695312 C 315.101562 301.773438 315.625 302.878906 316.089844 304.011719 C 316.558594 305.140625 316.972656 306.292969 317.328125 307.464844 C 317.683594 308.636719 317.980469 309.820312 318.21875 311.023438 C 318.457031 312.222656 318.636719 313.433594 318.757812 314.652344 C 318.875 315.867188 318.9375 317.089844 318.9375 318.3125 Z M 318.9375 318.3125 " fill-opacity="1" fill-rule="nonzero"/><path fill="#f1f4f6" d="M 294.019531 318.3125 C 294.019531 319.132812 293.941406 319.941406 293.78125 320.746094 C 293.621094 321.546875 293.382812 322.324219 293.070312 323.082031 C 292.757812 323.835938 292.375 324.554688 291.921875 325.234375 C 291.464844 325.914062 290.949219 326.542969 290.371094 327.125 C 289.792969 327.703125 289.164062 328.21875 288.484375 328.671875 C 287.804688 329.128906 287.085938 329.511719 286.328125 329.824219 C 285.574219 330.136719 284.792969 330.375 283.992188 330.53125 C 283.191406 330.691406 282.378906 330.773438 281.5625 330.773438 C 280.742188 330.773438 279.933594 330.691406 279.132812 330.53125 C 278.328125 330.375 277.550781 330.136719 276.792969 329.824219 C 276.039062 329.511719 275.320312 329.128906 274.640625 328.671875 C 273.960938 328.21875 273.332031 327.703125 272.753906 327.125 C 272.171875 326.542969 271.65625 325.914062 271.203125 325.234375 C 270.75 324.554688 270.363281 323.835938 270.050781 323.082031 C 269.738281 322.324219 269.5 321.546875 269.34375 320.746094 C 269.183594 319.941406 269.101562 319.132812 269.101562 318.3125 C 269.101562 317.496094 269.183594 316.6875 269.34375 315.882812 C 269.5 315.082031 269.738281 314.300781 270.050781 313.546875 C 270.363281 312.789062 270.75 312.074219 271.203125 311.390625 C 271.65625 310.710938 272.171875 310.082031 272.753906 309.503906 C 273.332031 308.925781 273.960938 308.410156 274.640625 307.953125 C 275.320312 307.5 276.039062 307.117188 276.792969 306.804688 C 277.550781 306.492188 278.328125 306.253906 279.132812 306.09375 C 279.933594 305.933594 280.742188 305.855469 281.5625 305.855469 C 282.378906 305.855469 283.191406 305.933594 283.992188 306.09375 C 284.792969 306.253906 285.574219 306.492188 286.328125 306.804688 C 287.085938 307.117188 287.804688 307.5 288.484375 307.953125 C 289.164062 308.410156 289.792969 308.925781 290.371094 309.503906 C 290.949219 310.082031 291.464844 310.710938 291.921875 311.390625 C 292.375 312.074219 292.757812 312.789062 293.070312 313.546875 C 293.382812 314.300781 293.621094 315.082031 293.78125 315.882812 C 293.941406 316.6875 294.019531 317.496094 294.019531 318.3125 Z M 294.019531 318.3125 " fill-opacity="1" fill-rule="nonzero"/><path fill="#83727a" d="M 350.082031 199.957031 C 346.636719 199.957031 343.855469 202.742188 343.855469 206.1875 C 343.855469 209.632812 346.636719 212.417969 350.082031 212.417969 L 375 212.417969 L 375 199.957031 Z M 350.082031 199.957031 " fill-opacity="1" fill-rule="nonzero"/></svg>