<svg xmlns="http://www.w3.org/2000/svg" xmlns:xlink="http://www.w3.org/1999/xlink" width="500" zoomAndPan="magnify" viewBox="0 0 375 374.999991" height="500" preserveAspectRatio="xMidYMid meet" version="1.0"><path fill="#40b0bb" d="M 374.976562 187.492188 C 374.976562 291.039062 291.035156 374.976562 187.488281 374.976562 C 83.941406 374.976562 0 291.039062 0 187.492188 C 0 83.945312 83.941406 0.00390625 187.488281 0.00390625 C 291.035156 0.00390625 374.976562 83.945312 374.976562 187.492188 " fill-opacity="1" fill-rule="nonzero"/><path fill="#f9f9f9" d="M 362.160156 187.492188 C 362.160156 283.957031 283.953125 362.164062 187.488281 362.164062 C 91.019531 362.164062 12.8125 283.957031 12.8125 187.492188 C 12.8125 91.019531 91.019531 12.816406 187.488281 12.816406 C 283.953125 12.816406 362.160156 91.019531 362.160156 187.492188 " fill-opacity="1" fill-rule="nonzero"/><path fill="#40b0bb" d="M 187.488281 22.023438 C 96.25 22.023438 22.019531 96.253906 22.019531 187.492188 C 22.019531 278.730469 96.25 352.957031 187.488281 352.957031 C 278.726562 352.957031 352.953125 278.730469 352.953125 187.492188 C 352.953125 96.253906 278.726562 22.023438 187.488281 22.023438 Z M 187.488281 370.15625 C 162.832031 370.15625 138.910156 365.324219 116.382812 355.792969 C 94.628906 346.59375 75.097656 333.425781 58.324219 316.652344 C 41.554688 299.882812 28.382812 280.347656 19.183594 258.597656 C 9.65625 236.066406 4.824219 212.144531 4.824219 187.492188 C 4.824219 162.835938 9.65625 138.914062 19.183594 116.386719 C 28.382812 94.632812 41.554688 75.101562 58.324219 58.328125 C 75.097656 41.554688 94.628906 28.386719 116.382812 19.1875 C 138.910156 9.65625 162.832031 4.824219 187.488281 4.824219 C 212.140625 4.824219 236.066406 9.65625 258.59375 19.1875 C 280.34375 28.386719 299.878906 41.554688 316.648438 58.328125 C 333.421875 75.101562 346.59375 94.632812 355.792969 116.386719 C 365.320312 138.914062 370.148438 162.835938 370.148438 187.492188 C 370.148438 212.144531 365.320312 236.066406 355.792969 258.597656 C 346.59375 280.347656 333.421875 299.882812 316.648438 316.652344 C 299.878906 333.425781 280.34375 346.59375 258.59375 355.792969 C 236.066406 365.324219 212.140625 370.15625 187.488281 370.15625 " fill-opacity="1" fill-rule="nonzero"/><path fill="#40b0bb" d="M 168.820312 230.375 C 168.820312 256.769531 155.628906 271.847656 130.179688 271.847656 C 104.730469 271.847656 91.53125 256.769531 91.53125 230.375 L 91.53125 144.601562 C 91.53125 118.214844 104.730469 103.132812 130.179688 103.132812 C 155.628906 103.132812 168.820312 118.214844 168.820312 144.601562 L 168.820312 160.628906 L 144.316406 160.628906 L 144.316406 142.953125 C 144.316406 131.175781 139.128906 126.695312 130.882812 126.695312 C 122.636719 126.695312 117.453125 131.175781 117.453125 142.953125 L 117.453125 232.027344 C 117.453125 243.804688 122.636719 248.050781 130.882812 248.050781 C 139.128906 248.050781 144.316406 243.804688 144.316406 232.027344 L 144.316406 208.460938 L 168.820312 208.460938 L 168.820312 230.375 " fill-opacity="1" fill-rule="nonzero"/><path fill="#40b0bb" d="M 221.835938 248.285156 C 230.082031 248.285156 235.269531 243.804688 235.269531 232.027344 L 235.269531 142.953125 C 235.269531 131.175781 230.082031 126.695312 221.835938 126.695312 C 213.589844 126.695312 208.40625 131.175781 208.40625 142.953125 L 208.40625 232.027344 C 208.40625 243.804688 213.589844 248.285156 221.835938 248.285156 Z M 221.835938 103.132812 C 247.285156 103.132812 261.1875 118.214844 261.1875 144.601562 L 261.1875 230.375 C 261.1875 256.769531 247.285156 271.847656 221.835938 271.847656 C 196.386719 271.847656 182.484375 256.769531 182.484375 230.375 L 182.484375 144.601562 C 182.484375 118.214844 196.386719 103.132812 221.835938 103.132812 " fill-opacity="1" fill-rule="nonzero"/><path fill="#40b0bb" d="M 284.96875 246.28125 C 282.4375 246.28125 280.847656 247.65625 280.847656 251.273438 L 280.847656 256.695312 L 273.328125 256.695312 L 273.328125 251.777344 C 273.328125 243.675781 277.375 239.050781 285.1875 239.050781 C 292.996094 239.050781 297.046875 243.675781 297.046875 251.777344 C 297.046875 267.6875 281.210938 273.613281 281.210938 281.929688 C 281.210938 282.289062 281.210938 282.652344 281.28125 283.015625 L 296.320312 283.015625 L 296.320312 290.246094 L 273.328125 290.246094 L 273.328125 284.027344 C 273.328125 269.132812 289.09375 266.671875 289.09375 252.066406 C 289.09375 247.511719 287.5 246.28125 284.96875 246.28125 " fill-opacity="1" fill-rule="nonzero"/></svg>