<svg xmlns="http://www.w3.org/2000/svg" xmlns:xlink="http://www.w3.org/1999/xlink" width="500" zoomAndPan="magnify" viewBox="0 0 375 374.999991" height="500" preserveAspectRatio="xMidYMid meet" version="1.0"><defs><clipPath id="c6f5062d97"><path d="M 0 50.15625 L 375 50.15625 L 375 324.65625 L 0 324.65625 Z M 0 50.15625 " clip-rule="nonzero"/></clipPath></defs><g clip-path="url(#c6f5062d97)"><path fill="#40b0bb" d="M 337.328125 50.15625 L 37.671875 50.15625 C 36.445312 50.15625 35.21875 50.214844 34 50.335938 C 32.777344 50.457031 31.566406 50.636719 30.363281 50.875 C 29.160156 51.117188 27.972656 51.414062 26.796875 51.769531 C 25.625 52.125 24.46875 52.539062 23.335938 53.007812 C 22.203125 53.476562 21.09375 54 20.011719 54.578125 C 18.929688 55.15625 17.878906 55.789062 16.859375 56.46875 C 15.839844 57.152344 14.855469 57.878906 13.90625 58.660156 C 12.960938 59.4375 12.050781 60.261719 11.183594 61.128906 C 10.316406 61.996094 9.492188 62.902344 8.714844 63.851562 C 7.9375 64.800781 7.207031 65.785156 6.527344 66.804688 C 5.84375 67.824219 5.214844 68.875 4.636719 69.957031 C 4.058594 71.039062 3.535156 72.144531 3.0625 73.28125 C 2.59375 74.414062 2.183594 75.566406 1.824219 76.742188 C 1.46875 77.914062 1.171875 79.101562 0.933594 80.304688 C 0.695312 81.507812 0.515625 82.722656 0.394531 83.941406 C 0.273438 85.164062 0.214844 86.386719 0.214844 87.613281 L 0.214844 287.386719 C 0.214844 288.613281 0.273438 289.835938 0.394531 291.058594 C 0.515625 292.277344 0.695312 293.492188 0.933594 294.695312 C 1.171875 295.898438 1.46875 297.085938 1.824219 298.257812 C 2.183594 299.433594 2.59375 300.585938 3.0625 301.71875 C 3.535156 302.855469 4.058594 303.960938 4.636719 305.042969 C 5.214844 306.125 5.84375 307.175781 6.527344 308.195312 C 7.207031 309.214844 7.9375 310.199219 8.714844 311.148438 C 9.492188 312.097656 10.316406 313.003906 11.183594 313.871094 C 12.050781 314.738281 12.960938 315.5625 13.90625 316.339844 C 14.855469 317.121094 15.839844 317.847656 16.859375 318.53125 C 17.878906 319.210938 18.929688 319.84375 20.011719 320.421875 C 21.09375 321 22.203125 321.523438 23.335938 321.992188 C 24.46875 322.460938 25.625 322.875 26.796875 323.230469 C 27.972656 323.585938 29.160156 323.882812 30.363281 324.125 C 31.566406 324.363281 32.777344 324.542969 34 324.664062 C 35.21875 324.785156 36.445312 324.84375 37.671875 324.84375 L 337.328125 324.84375 C 338.554688 324.84375 339.78125 324.785156 341 324.664062 C 342.222656 324.542969 343.433594 324.363281 344.636719 324.125 C 345.839844 323.882812 347.027344 323.585938 348.203125 323.230469 C 349.375 322.875 350.53125 322.460938 351.664062 321.992188 C 352.796875 321.523438 353.90625 321 354.988281 320.421875 C 356.070312 319.84375 357.121094 319.210938 358.140625 318.53125 C 359.160156 317.847656 360.144531 317.121094 361.09375 316.339844 C 362.039062 315.5625 362.949219 314.738281 363.816406 313.871094 C 364.683594 313.003906 365.507812 312.097656 366.285156 311.148438 C 367.0625 310.199219 367.792969 309.214844 368.472656 308.195312 C 369.15625 307.175781 369.785156 306.125 370.363281 305.042969 C 370.941406 303.960938 371.464844 302.855469 371.9375 301.71875 C 372.40625 300.585938 372.816406 299.433594 373.175781 298.257812 C 373.53125 297.085938 373.828125 295.898438 374.066406 294.695312 C 374.304688 293.492188 374.488281 292.277344 374.605469 291.058594 C 374.726562 289.835938 374.785156 288.613281 374.785156 287.386719 L 374.785156 87.613281 C 374.785156 86.386719 374.726562 85.164062 374.605469 83.941406 C 374.484375 82.722656 374.304688 81.507812 374.066406 80.304688 C 373.828125 79.101562 373.53125 77.914062 373.175781 76.742188 C 372.816406 75.566406 372.40625 74.414062 371.9375 73.28125 C 371.464844 72.144531 370.941406 71.039062 370.363281 69.957031 C 369.785156 68.875 369.15625 67.824219 368.472656 66.804688 C 367.792969 65.785156 367.0625 64.800781 366.285156 63.851562 C 365.507812 62.902344 364.683594 61.996094 363.816406 61.128906 C 362.949219 60.261719 362.039062 59.4375 361.09375 58.660156 C 360.144531 57.878906 359.160156 57.152344 358.140625 56.46875 C 357.121094 55.789062 356.070312 55.15625 354.988281 54.578125 C 353.90625 54 352.796875 53.476562 351.664062 53.007812 C 350.53125 52.539062 349.375 52.125 348.203125 51.769531 C 347.027344 51.414062 345.839844 51.117188 344.636719 50.875 C 343.433594 50.636719 342.222656 50.457031 341 50.335938 C 339.78125 50.214844 338.554688 50.15625 337.328125 50.15625 Z M 25.183594 89.796875 L 128.816406 178.597656 L 25.183594 282.21875 Z M 195.617188 189.0625 C 195.058594 189.542969 194.460938 189.976562 193.824219 190.351562 C 193.1875 190.730469 192.523438 191.046875 191.832031 191.304688 C 191.136719 191.5625 190.429688 191.757812 189.699219 191.890625 C 188.972656 192.019531 188.238281 192.085938 187.5 192.085938 C 186.761719 192.085938 186.027344 192.019531 185.300781 191.890625 C 184.570312 191.757812 183.863281 191.5625 183.167969 191.304688 C 182.476562 191.046875 181.8125 190.730469 181.175781 190.351562 C 180.539062 189.976562 179.941406 189.542969 179.382812 189.0625 L 46.410156 75.128906 L 328.589844 75.128906 Z M 147.820312 194.890625 L 163.117188 208 C 163.964844 208.699219 164.847656 209.359375 165.753906 209.984375 C 166.664062 210.605469 167.59375 211.1875 168.554688 211.730469 C 169.511719 212.273438 170.492188 212.773438 171.492188 213.230469 C 172.492188 213.691406 173.511719 214.105469 174.546875 214.476562 C 175.585938 214.84375 176.636719 215.171875 177.699219 215.453125 C 178.765625 215.730469 179.839844 215.964844 180.925781 216.15625 C 182.007812 216.34375 183.101562 216.484375 184.195312 216.578125 C 185.292969 216.671875 186.394531 216.71875 187.492188 216.71875 C 188.59375 216.71875 189.695312 216.671875 190.789062 216.578125 C 191.886719 216.484375 192.976562 216.34375 194.0625 216.15625 C 195.148438 215.964844 196.222656 215.730469 197.285156 215.453125 C 198.351562 215.171875 199.402344 214.84375 200.4375 214.476562 C 201.476562 214.105469 202.496094 213.691406 203.496094 213.230469 C 204.496094 212.773438 205.476562 212.273438 206.433594 211.730469 C 207.390625 211.1875 208.324219 210.605469 209.234375 209.984375 C 210.140625 209.359375 211.019531 208.699219 211.871094 208 L 227.179688 194.878906 L 332.160156 299.871094 L 42.839844 299.871094 Z M 246.195312 178.660156 L 349.816406 89.796875 L 349.816406 282.21875 Z M 246.195312 178.660156 " fill-opacity="1" fill-rule="nonzero"/></g></svg>