<svg xmlns="http://www.w3.org/2000/svg" xmlns:xlink="http://www.w3.org/1999/xlink" width="500" zoomAndPan="magnify" viewBox="0 0 375 374.999991" height="500" preserveAspectRatio="xMidYMid meet" version="1.0"><path fill="#40b0bb" d="M 90.851562 0.113281 C 82.726562 0.113281 76.1875 6.65625 76.1875 14.785156 L 76.1875 336.125 L 11.660156 336.125 C 5.160156 336.125 -0.0703125 341.359375 -0.0703125 347.863281 L -0.0703125 365.46875 C -0.0703125 371.972656 5.160156 377.207031 11.660156 377.207031 L 343.09375 377.207031 C 349.59375 377.207031 354.828125 371.972656 354.828125 365.46875 L 354.828125 347.863281 C 354.828125 341.359375 349.59375 336.125 343.09375 336.125 L 278.566406 336.125 L 278.566406 177.722656 C 291.042969 179.230469 294.984375 184.101562 297.273438 192.238281 C 299.667969 200.742188 298.316406 213.675781 294.960938 226.535156 C 290.421875 243.957031 286.835938 264.367188 290.695312 282.328125 C 292.625 291.3125 296.628906 299.851562 303.71875 306.207031 C 310.808594 312.5625 320.695312 316.347656 332.886719 316.953125 C 349.851562 317.792969 362.589844 310.945312 368.640625 300.023438 C 374.6875 289.105469 374.894531 275.871094 373.191406 262.664062 C 369.789062 236.253906 357.929688 209.128906 353.40625 200.078125 C 334.265625 161.773438 340.933594 116.714844 340.933594 116.714844 L 341.027344 116.121094 L 341.027344 115.515625 C 341.027344 111.6875 339.925781 109.007812 338.558594 105.671875 C 337.195312 102.335938 335.375 98.648438 333.234375 94.652344 C 328.953125 86.65625 323.382812 77.476562 317.824219 68.707031 C 306.710938 51.164062 295.636719 35.289062 295.636719 35.289062 L 282.910156 44.171875 C 282.910156 44.171875 289.03125 52.957031 296.679688 64.582031 L 296.679688 114.085938 C 296.679688 119.226562 300.808594 123.367188 305.941406 123.367188 L 324.628906 123.367188 C 323.421875 138.804688 323.015625 173.992188 339.523438 207.023438 C 343.21875 214.417969 354.828125 241.605469 357.800781 264.652344 C 359.285156 276.175781 358.410156 286.457031 355.0625 292.496094 C 351.71875 298.535156 346.75 302.089844 333.652344 301.441406 C 324.128906 300.972656 318.207031 298.351562 314.074219 294.644531 C 309.941406 290.941406 307.3125 285.769531 305.871094 279.0625 C 302.988281 265.652344 305.722656 246.785156 309.980469 230.457031 C 313.660156 216.339844 315.972656 201.398438 312.210938 188.03125 C 308.46875 174.746094 296.789062 163.882812 278.566406 162.109375 L 278.566406 14.785156 C 278.566406 6.65625 272.027344 0.113281 263.902344 0.113281 Z M 94.15625 38.117188 L 260.160156 38.117188 L 260.160156 158.433594 L 94.15625 158.433594 Z M 94.15625 38.117188 " fill-opacity="1" fill-rule="evenodd"/></svg>