<svg xmlns="http://www.w3.org/2000/svg" xmlns:xlink="http://www.w3.org/1999/xlink" width="500" zoomAndPan="magnify" viewBox="0 0 375 374.999991" height="500" preserveAspectRatio="xMidYMid meet" version="1.0"><path fill="#40b0bb" d="M 187.5 0 C 84.117188 0 0 84.117188 0 187.5 C 0 290.882812 84.117188 375 187.5 375 C 290.882812 375 375 290.882812 375 187.5 C 375 84.117188 290.882812 0 187.5 0 Z M 187.5 359.375 C 92.726562 359.375 15.625 282.273438 15.625 187.5 C 15.625 92.726562 92.726562 15.625 187.5 15.625 C 282.273438 15.625 359.375 92.726562 359.375 187.5 C 359.375 282.273438 282.273438 359.375 187.5 359.375 Z M 187.5 359.375 " fill-opacity="1" fill-rule="nonzero"/><path fill="#40b0bb" d="M 171.875 93.75 L 203.125 93.75 C 224.664062 93.75 242.1875 111.273438 242.1875 132.8125 L 257.8125 132.8125 C 257.8125 102.65625 233.273438 78.125 203.125 78.125 L 195.3125 78.125 L 195.3125 54.6875 L 179.6875 54.6875 L 179.6875 78.125 L 171.875 78.125 C 141.726562 78.125 117.1875 102.65625 117.1875 132.8125 L 117.1875 140.625 C 117.1875 170.78125 141.726562 195.3125 171.875 195.3125 L 203.125 195.3125 C 224.664062 195.3125 242.1875 212.835938 242.1875 234.375 L 242.1875 242.1875 C 242.1875 263.726562 224.664062 281.25 203.125 281.25 L 171.875 281.25 C 150.335938 281.25 132.8125 263.726562 132.8125 242.1875 L 117.1875 242.1875 C 117.1875 272.34375 141.726562 296.875 171.875 296.875 L 179.6875 296.875 L 179.6875 320.3125 L 195.3125 320.3125 L 195.3125 296.875 L 203.125 296.875 C 233.273438 296.875 257.8125 272.34375 257.8125 242.1875 L 257.8125 234.375 C 257.8125 204.21875 233.273438 179.6875 203.125 179.6875 L 171.875 179.6875 C 150.335938 179.6875 132.8125 162.164062 132.8125 140.625 L 132.8125 132.8125 C 132.8125 111.273438 150.335938 93.75 171.875 93.75 Z M 171.875 93.75 " fill-opacity="1" fill-rule="nonzero"/></svg>