<svg xmlns="http://www.w3.org/2000/svg" xmlns:xlink="http://www.w3.org/1999/xlink" width="500" zoomAndPan="magnify" viewBox="0 0 375 374.999991" height="500" preserveAspectRatio="xMidYMid meet" version="1.0"><path fill="#000000" d="M 54.6875 0 C 24.53125 0 0 24.53125 0 54.6875 C 0 82.21875 43.3125 145.734375 48.25 152.875 C 49.71875 154.984375 52.125 156.25 54.6875 156.25 C 57.25 156.25 59.65625 154.984375 61.125 152.875 C 66.0625 145.71875 109.375 82.21875 109.375 54.6875 C 109.375 24.53125 84.84375 0 54.6875 0 Z M 54.6875 78.125 C 41.75 78.125 31.25 67.625 31.25 54.6875 C 31.25 41.75 41.75 31.25 54.6875 31.25 C 67.625 31.25 78.125 41.75 78.125 54.6875 C 78.125 67.625 67.625 78.125 54.6875 78.125 Z M 54.6875 78.125 " fill-opacity="1" fill-rule="nonzero"/><path fill="#000000" d="M 273.4375 375 C 261.53125 375 250.609375 374.015625 240.96875 372.0625 C 236.734375 371.203125 234.015625 367.078125 234.859375 362.84375 C 235.71875 358.609375 239.765625 355.921875 244.078125 356.734375 C 252.703125 358.484375 262.578125 359.375 273.4375 359.375 C 277.75 359.375 281.25 362.875 281.25 367.1875 C 281.25 371.5 277.75 375 273.4375 375 Z M 213.734375 361.15625 C 212.296875 361.15625 210.84375 360.765625 209.53125 359.921875 C 199.59375 353.578125 191.859375 345.375 185.890625 334.875 C 183.75 331.125 185.078125 326.359375 188.828125 324.21875 C 192.578125 322.078125 197.34375 323.40625 199.484375 327.15625 C 204.171875 335.40625 210.203125 341.8125 217.953125 346.75 C 221.59375 349.0625 222.65625 353.90625 220.328125 357.53125 C 218.84375 359.875 216.3125 361.15625 213.734375 361.15625 Z M 182.359375 309.515625 C 178.71875 309.515625 175.46875 306.953125 174.71875 303.265625 C 172.4375 292.078125 171.328125 280.296875 170.609375 271.296875 C 170.265625 267 173.484375 263.234375 177.78125 262.890625 C 182.0625 262.515625 185.84375 265.765625 186.1875 270.0625 C 186.859375 278.625 187.921875 289.78125 190.03125 300.15625 C 190.890625 304.390625 188.15625 308.515625 183.9375 309.359375 C 183.40625 309.46875 182.890625 309.515625 182.359375 309.515625 Z M 176.15625 247.25 C 172.140625 247.25 168.71875 244.171875 168.375 240.09375 C 167.3125 227.546875 166.03125 218.328125 164.171875 210.203125 C 163.203125 206 165.84375 201.8125 170.046875 200.84375 C 174.203125 199.859375 178.4375 202.515625 179.40625 206.734375 C 181.421875 215.59375 182.8125 225.484375 183.9375 238.765625 C 184.296875 243.0625 181.109375 246.84375 176.8125 247.203125 C 176.59375 247.234375 176.375 247.25 176.15625 247.25 Z M 160.40625 187.46875 C 157.84375 187.46875 155.328125 186.203125 153.84375 183.890625 C 148.84375 176.15625 142.40625 170.265625 134.15625 165.875 C 130.34375 163.84375 128.90625 159.109375 130.921875 155.3125 C 132.953125 151.515625 137.6875 150.078125 141.484375 152.078125 C 151.984375 157.671875 160.5625 165.515625 166.953125 175.40625 C 169.296875 179.015625 168.25 183.859375 164.640625 186.203125 C 163.328125 187.0625 161.859375 187.46875 160.40625 187.46875 Z M 108.328125 157.71875 C 107.96875 157.71875 107.59375 157.703125 107.203125 157.640625 C 100.71875 156.703125 93.359375 156.4375 85.953125 156.25 C 81.640625 156.25 78.140625 152.75 78.140625 148.4375 C 78.140625 144.0625 81.828125 140.28125 86.125 140.625 C 94.421875 140.625 102.265625 141.140625 109.4375 142.171875 C 113.703125 142.796875 116.671875 146.75 116.0625 151.015625 C 115.484375 154.921875 112.140625 157.71875 108.328125 157.71875 Z M 108.328125 157.71875 " fill-opacity="1" fill-rule="nonzero"/><path fill="#000000" d="M 304.6875 156.25 C 265.921875 156.25 234.375 187.796875 234.375 226.5625 C 234.375 262.171875 291.453125 360.109375 297.953125 371.15625 C 299.359375 373.53125 301.90625 375 304.6875 375 C 307.46875 375 310.015625 373.53125 311.421875 371.15625 C 317.9375 360.109375 375 262.171875 375 226.5625 C 375 187.796875 343.453125 156.25 304.6875 156.25 Z M 304.6875 265.625 C 283.140625 265.625 265.625 248.109375 265.625 226.5625 C 265.625 205.015625 283.140625 187.5 304.6875 187.5 C 326.234375 187.5 343.75 205.015625 343.75 226.5625 C 343.75 248.109375 326.234375 265.625 304.6875 265.625 Z M 304.6875 265.625 " fill-opacity="1" fill-rule="nonzero"/></svg>