<svg xmlns="http://www.w3.org/2000/svg" xmlns:xlink="http://www.w3.org/1999/xlink" width="500" zoomAndPan="magnify" viewBox="0 0 375 374.999991" height="500" preserveAspectRatio="xMidYMid meet" version="1.0"><path fill="#000000" d="M 25 25 L 37.5 25 L 37.5 37.5 L 25 37.5 Z M 25 25 " fill-opacity="1" fill-rule="nonzero"/><path fill="#000000" d="M 50 25 L 62.5 25 L 62.5 37.5 L 50 37.5 Z M 50 25 " fill-opacity="1" fill-rule="nonzero"/><path fill="#000000" d="M 75 25 L 87.5 25 L 87.5 37.5 L 75 37.5 Z M 75 25 " fill-opacity="1" fill-rule="nonzero"/><path fill="#000000" d="M 356.25 0 L 18.75 0 C 8.4375 0 0 8.4375 0 18.75 L 0 356.25 C 0 366.5625 8.4375 375 18.75 375 L 356.25 375 C 366.5625 375 375 366.5625 375 356.25 L 375 18.75 C 375 8.4375 366.5625 0 356.25 0 Z M 362.5 25 L 100 25 L 100 37.5 L 362.5 37.5 L 362.5 356.25 C 362.5 359.6875 359.6875 362.5 356.25 362.5 L 18.75 362.5 C 15.3125 362.5 12.5 359.6875 12.5 356.25 L 12.5 18.75 C 12.5 15.3125 15.3125 12.5 18.75 12.5 L 356.25 12.5 C 359.6875 12.5 362.5 15.3125 362.5 18.75 Z M 362.5 25 " fill-opacity="1" fill-rule="nonzero"/><path fill="#000000" d="M 118.75 62.5 L 256.25 62.5 L 256.25 75 L 118.75 75 Z M 118.75 62.5 " fill-opacity="1" fill-rule="nonzero"/><path fill="#000000" d="M 37.5 118.75 L 37.5 156.25 C 37.5 159.6875 40.3125 162.5 43.75 162.5 L 231.25 162.5 L 231.25 150 L 50 150 L 50 125 L 325 125 L 325 150 L 306.25 150 L 306.25 162.5 L 331.25 162.5 C 334.6875 162.5 337.5 159.6875 337.5 156.25 L 337.5 118.75 C 337.5 115.3125 334.6875 112.5 331.25 112.5 L 43.75 112.5 C 40.3125 112.5 37.5 115.3125 37.5 118.75 Z M 37.5 118.75 " fill-opacity="1" fill-rule="nonzero"/><path fill="#000000" d="M 37.5 87.5 L 93.75 87.5 L 93.75 100 L 37.5 100 Z M 37.5 87.5 " fill-opacity="1" fill-rule="nonzero"/><path fill="#000000" d="M 37.5 181.25 L 125 181.25 L 125 193.75 L 37.5 193.75 Z M 37.5 181.25 " fill-opacity="1" fill-rule="nonzero"/><path fill="#000000" d="M 331.25 206.25 L 312.5 206.25 L 312.5 218.75 L 325 218.75 L 325 243.75 L 292.5 243.75 L 300 241.015625 C 303.203125 239.84375 304.921875 236.25 303.75 232.96875 L 289.296875 193.515625 L 306.953125 191.640625 C 309.53125 191.328125 311.640625 189.53125 312.34375 187.03125 C 313.046875 184.53125 312.109375 181.875 310 180.390625 L 255.390625 140.546875 C 253.671875 139.296875 251.484375 138.984375 249.53125 139.765625 C 247.578125 140.46875 246.09375 142.109375 245.625 144.140625 L 229.84375 209.84375 C 229.21875 212.34375 230.234375 215 232.34375 216.484375 C 234.453125 217.96875 237.265625 217.96875 239.375 216.484375 L 254.0625 206.484375 L 267.734375 243.75 L 50 243.75 L 50 218.75 L 218.75 218.75 L 218.75 206.25 L 43.75 206.25 C 40.3125 206.25 37.5 209.0625 37.5 212.5 L 37.5 250 C 37.5 253.4375 40.3125 256.25 43.75 256.25 L 331.25 256.25 C 334.6875 256.25 337.5 253.4375 337.5 250 L 337.5 212.5 C 337.5 209.0625 334.6875 206.25 331.25 206.25 Z M 259.0625 190.859375 C 258.4375 190.625 257.8125 190.546875 257.1875 190.546875 C 255.9375 190.546875 254.6875 190.9375 253.671875 191.640625 L 245.703125 197.03125 L 255.546875 156.171875 L 289.53125 181.015625 L 280 182.03125 C 278.046875 182.265625 276.40625 183.28125 275.390625 184.921875 C 274.375 186.5625 274.140625 188.59375 274.84375 190.390625 L 289.921875 231.484375 L 278.203125 235.78125 L 263.125 194.6875 C 262.34375 192.890625 260.9375 191.484375 259.0625 190.859375 Z M 259.0625 190.859375 " fill-opacity="1" fill-rule="nonzero"/><path fill="#000000" d="M 37.5 275 L 125 275 L 125 287.5 L 37.5 287.5 Z M 37.5 275 " fill-opacity="1" fill-rule="nonzero"/><path fill="#000000" d="M 331.25 300 L 43.75 300 C 40.3125 300 37.5 302.8125 37.5 306.25 L 37.5 343.75 C 37.5 347.1875 40.3125 350 43.75 350 L 331.25 350 C 334.6875 350 337.5 347.1875 337.5 343.75 L 337.5 306.25 C 337.5 302.8125 334.6875 300 331.25 300 Z M 325 337.5 L 50 337.5 L 50 312.5 L 325 312.5 Z M 325 337.5 " fill-opacity="1" fill-rule="nonzero"/></svg>