<svg xmlns="http://www.w3.org/2000/svg" xmlns:xlink="http://www.w3.org/1999/xlink" width="500" zoomAndPan="magnify" viewBox="0 0 375 374.999991" height="500" preserveAspectRatio="xMidYMid meet" version="1.0"><defs><clipPath id="fa2e6e957c"><path d="M 0 116 L 283 116 L 283 338.578125 L 0 338.578125 Z M 0 116 " clip-rule="nonzero"/></clipPath><clipPath id="42dc2c5320"><path d="M 112 36.328125 L 375 36.328125 L 375 259 L 112 259 Z M 112 36.328125 " clip-rule="nonzero"/></clipPath></defs><g clip-path="url(#fa2e6e957c)"><path fill="#40b0bb" d="M 265.714844 277.023438 C 262.640625 272.953125 256.871094 272.105469 252.753906 275.121094 C 234.070312 288.816406 211.941406 296.054688 188.761719 296.054688 C 161.449219 296.054688 135.332031 285.824219 115.230469 267.246094 C 96.5 249.933594 84.539062 226.871094 81.210938 201.855469 L 108.929688 201.839844 C 112.429688 201.839844 115.636719 199.878906 117.230469 196.761719 C 118.824219 193.644531 118.535156 189.894531 116.484375 187.058594 L 68.210938 120.257812 C 66.476562 117.855469 63.707031 116.425781 60.75 116.394531 C 57.789062 116.367188 54.992188 117.738281 53.207031 120.101562 L 2.75 186.933594 C 0.617188 189.757812 0.269531 193.542969 1.847656 196.710938 C 3.425781 199.875 6.660156 201.875 10.195312 201.875 C 10.199219 201.875 10.199219 201.875 10.199219 201.875 L 38.496094 201.859375 C 45.796875 278.878906 111.015625 338.582031 188.867188 338.582031 C 221.207031 338.582031 252.097656 328.429688 278.207031 309.21875 C 280.214844 307.738281 281.546875 305.519531 281.90625 303.054688 C 282.265625 300.585938 281.625 298.078125 280.121094 296.089844 Z M 265.714844 277.023438 " fill-opacity="1" fill-rule="nonzero"/></g><g clip-path="url(#42dc2c5320)"><path fill="#40b0bb" d="M 373.109375 178.144531 C 371.515625 175.027344 368.3125 173.066406 364.808594 173.0625 L 339.140625 173.046875 C 331.824219 96.03125 266.65625 36.324219 188.753906 36.324219 C 164.050781 36.324219 139.398438 42.546875 117.457031 54.324219 C 115.089844 55.59375 113.382812 57.828125 112.78125 60.449219 C 112.179688 63.070312 112.738281 65.820312 114.3125 68 L 128.410156 87.5 C 131.09375 91.210938 136.066406 92.429688 140.160156 90.371094 C 155.160156 82.832031 172.015625 78.847656 188.898438 78.847656 C 216.203125 78.847656 242.308594 89.078125 262.40625 107.652344 C 281.128906 124.957031 293.089844 148.019531 296.425781 173.042969 L 266.082031 173.027344 C 266.082031 173.027344 266.082031 173.027344 266.078125 173.027344 C 262.539062 173.027344 259.308594 175.027344 257.730469 178.195312 C 256.152344 181.363281 256.5 185.148438 258.632812 187.972656 L 309.089844 254.789062 C 310.855469 257.121094 313.609375 258.492188 316.535156 258.492188 C 316.566406 258.492188 316.597656 258.492188 316.632812 258.492188 C 319.589844 258.460938 322.359375 257.027344 324.09375 254.632812 L 372.363281 187.847656 C 374.414062 185.011719 374.703125 181.261719 373.109375 178.144531 Z M 373.109375 178.144531 " fill-opacity="1" fill-rule="nonzero"/></g></svg>