<svg xmlns="http://www.w3.org/2000/svg" xmlns:xlink="http://www.w3.org/1999/xlink" width="500" zoomAndPan="magnify" viewBox="0 0 375 374.999991" height="500" preserveAspectRatio="xMidYMid meet" version="1.0"><path fill="#000000" d="M 187.566406 17.898438 C 94.019531 17.898438 17.910156 94.003906 17.910156 187.550781 C 17.910156 281.097656 94.019531 357.203125 187.566406 357.203125 C 281.109375 357.203125 357.21875 281.097656 357.21875 187.550781 C 357.21875 94.003906 281.109375 17.898438 187.566406 17.898438 Z M 187.566406 375.113281 C 84.140625 375.113281 0 290.976562 0 187.550781 C 0 84.125 84.140625 -0.015625 187.566406 -0.015625 C 290.988281 -0.015625 375.113281 84.125 375.113281 187.550781 C 375.113281 290.976562 290.988281 375.113281 187.566406 375.113281 " fill-opacity="1" fill-rule="nonzero"/><path fill="#000000" d="M 239.382812 248.328125 C 237.09375 248.328125 234.804688 247.457031 233.0625 245.699219 L 181.230469 193.886719 C 179.546875 192.203125 178.601562 189.925781 178.601562 187.550781 L 178.601562 83.386719 C 178.601562 78.441406 182.617188 74.421875 187.566406 74.421875 C 192.511719 74.421875 196.511719 78.441406 196.511719 83.386719 L 196.511719 183.84375 L 245.714844 233.046875 C 249.214844 236.546875 249.214844 242.214844 245.714844 245.699219 C 243.957031 247.457031 241.667969 248.328125 239.382812 248.328125 " fill-opacity="1" fill-rule="nonzero"/><path fill="#000000" d="M 268.542969 65.179688 L 270.050781 62.582031 C 272.515625 58.296875 271.054688 52.820312 266.773438 50.355469 C 262.476562 47.875 256.996094 49.351562 254.53125 53.632812 L 253.023438 56.246094 C 250.558594 60.527344 252.035156 65.992188 256.316406 68.472656 C 257.722656 69.285156 259.269531 69.667969 260.777344 69.667969 C 263.878906 69.667969 266.890625 68.058594 268.542969 65.179688 Z M 120.582031 321.46875 L 122.089844 318.871094 C 124.554688 314.585938 123.09375 309.109375 118.796875 306.628906 C 114.515625 304.160156 109.035156 305.625 106.570312 309.90625 L 105.078125 312.519531 C 102.597656 316.800781 104.074219 322.28125 108.355469 324.746094 C 109.761719 325.558594 111.308594 325.941406 112.816406 325.941406 C 115.917969 325.941406 118.929688 324.347656 120.582031 321.46875 Z M 318.882812 122.074219 L 321.484375 120.570312 C 325.765625 118.101562 327.226562 112.625 324.761719 108.34375 C 322.28125 104.058594 316.800781 102.597656 312.519531 105.0625 L 309.921875 106.570312 C 305.636719 109.035156 304.175781 114.515625 306.644531 118.796875 C 308.296875 121.675781 311.308594 123.269531 314.410156 123.269531 C 315.929688 123.269531 317.464844 122.886719 318.882812 122.074219 Z M 62.59375 270.035156 L 65.195312 268.53125 C 69.476562 266.0625 70.953125 260.585938 68.472656 256.304688 C 66.007812 252.007812 60.511719 250.558594 56.246094 253.023438 L 53.648438 254.53125 C 49.363281 257.011719 47.886719 262.492188 50.367188 266.773438 C 52.023438 269.636719 55.035156 271.246094 58.136719 271.246094 C 59.65625 271.246094 61.191406 270.847656 62.59375 270.035156 Z M 345.980469 187.550781 C 345.980469 182.601562 341.980469 178.601562 337.03125 178.601562 L 334.019531 178.601562 C 329.074219 178.601562 325.070312 182.601562 325.070312 187.550781 C 325.070312 192.496094 329.074219 196.5 334.019531 196.5 L 337.03125 196.5 C 341.980469 196.5 345.980469 192.496094 345.980469 187.550781 Z M 50.058594 187.550781 C 50.058594 182.601562 46.042969 178.601562 41.09375 178.601562 L 38.097656 178.601562 C 33.152344 178.601562 29.132812 182.601562 29.132812 187.550781 C 29.132812 192.496094 33.152344 196.5 38.097656 196.5 L 41.09375 196.5 C 46.042969 196.5 50.058594 192.496094 50.058594 187.550781 Z M 324.761719 266.773438 C 327.226562 262.492188 325.765625 257.011719 321.484375 254.53125 L 318.882812 253.023438 C 314.601562 250.558594 309.125 252.019531 306.644531 256.304688 C 304.175781 260.585938 305.636719 266.0625 309.921875 268.53125 L 312.519531 270.035156 C 313.921875 270.847656 315.472656 271.246094 316.992188 271.246094 C 320.082031 271.246094 323.09375 269.636719 324.761719 266.773438 Z M 68.472656 118.796875 C 70.953125 114.515625 69.476562 109.035156 65.195312 106.570312 L 62.59375 105.0625 C 58.3125 102.597656 52.835938 104.058594 50.367188 108.34375 C 47.886719 112.625 49.363281 118.101562 53.648438 120.570312 L 56.246094 122.074219 C 57.648438 122.886719 59.199219 123.269531 60.707031 123.269531 C 63.804688 123.269531 66.820312 121.675781 68.472656 118.796875 Z M 266.773438 324.746094 C 271.054688 322.28125 272.515625 316.800781 270.050781 312.519531 L 268.542969 309.90625 C 266.078125 305.625 260.601562 304.160156 256.316406 306.628906 C 252.035156 309.109375 250.558594 314.585938 253.039062 318.871094 L 254.546875 321.46875 C 256.199219 324.347656 259.210938 325.941406 262.296875 325.941406 C 263.820312 325.941406 265.355469 325.558594 266.773438 324.746094 Z M 118.796875 68.472656 C 123.09375 65.992188 124.554688 60.527344 122.089844 56.246094 L 120.582031 53.632812 C 118.101562 49.351562 112.625 47.875 108.355469 50.355469 C 104.074219 52.820312 102.597656 58.296875 105.0625 62.582031 L 106.570312 65.179688 C 108.222656 68.058594 111.238281 69.667969 114.335938 69.667969 C 115.859375 69.667969 117.394531 69.285156 118.796875 68.472656 Z M 196.511719 337.015625 L 196.511719 334.003906 C 196.511719 329.074219 192.511719 325.054688 187.566406 325.054688 C 182.617188 325.054688 178.601562 329.074219 178.601562 334.003906 L 178.601562 337.015625 C 178.601562 341.964844 182.617188 345.964844 187.566406 345.964844 C 192.511719 345.964844 196.511719 341.964844 196.511719 337.015625 Z M 187.566406 50.042969 C 182.617188 50.042969 178.601562 46.042969 178.601562 41.09375 L 178.601562 38.082031 C 178.601562 33.136719 182.617188 29.132812 187.566406 29.132812 C 192.511719 29.132812 196.511719 33.136719 196.511719 38.082031 L 196.511719 41.09375 C 196.511719 46.042969 192.511719 50.042969 187.566406 50.042969 " fill-opacity="1" fill-rule="nonzero"/></svg>